<svg width="1440" height="35" viewBox="0 0 1440 35" fill="none" xmlns="http://www.w3.org/2000/svg">
  <path
    d="M7.96681 0H1.9917C0.891715 0 0 0.89543 0 2V8C0 9.10457 0.891715 10 1.9917 10H7.96681C9.06679 10 9.95851 9.10457 9.95851 8V2C9.95851 0.89543 9.06679 0 7.96681 0Z"
    fill="#60695C" fill-opacity="0.05" />
  <path
    d="M57.7578 0H51.7827C50.6827 0 49.791 0.89543 49.791 2V8C49.791 9.10457 50.6827 10 51.7827 10H57.7578C58.8578 10 59.7495 9.10457 59.7495 8V2C59.7495 0.89543 58.8578 0 57.7578 0Z"
    fill="#60695C" fill-opacity="0.05" />
  <path
    d="M84.647 5C84.647 2.23858 82.4177 0 79.6677 0C76.9178 0 74.6885 2.23858 74.6885 5C74.6885 7.76142 76.9178 10 79.6677 10C82.4177 10 84.647 7.76142 84.647 5Z"
    fill="#60695C" fill-opacity="0.05" />
  <path
    d="M107.553 0H101.578C100.478 0 99.5859 0.89543 99.5859 2V8C99.5859 9.10457 100.478 10 101.578 10H107.553C108.653 10 109.544 9.10457 109.544 8V2C109.544 0.89543 108.653 0 107.553 0Z"
    fill="#60695C" fill-opacity="0.05" />
  <path
    d="M134.441 5C134.441 2.23858 132.212 0 129.462 0C126.712 0 124.482 2.23858 124.482 5C124.482 7.76142 126.712 10 129.462 10C132.212 10 134.441 7.76142 134.441 5Z"
    fill="#60695C" fill-opacity="0.05" />
  <path
    d="M157.344 0H151.369C150.269 0 149.377 0.89543 149.377 2V8C149.377 9.10457 150.269 10 151.369 10H157.344C158.444 10 159.335 9.10457 159.335 8V2C159.335 0.89543 158.444 0 157.344 0Z"
    fill="#60695C" fill-opacity="0.05" />
  <path
    d="M184.233 5C184.233 2.23858 182.004 0 179.254 0C176.504 0 174.274 2.23858 174.274 5C174.274 7.76142 176.504 10 179.254 10C182.004 10 184.233 7.76142 184.233 5Z"
    fill="#60695C" fill-opacity="0.05" />
  <path
    d="M207.138 0H201.163C200.063 0 199.171 0.89543 199.171 2V8C199.171 9.10457 200.063 10 201.163 10H207.138C208.238 10 209.129 9.10457 209.129 8V2C209.129 0.89543 208.238 0 207.138 0Z"
    fill="#60695C" fill-opacity="0.05" />
  <path
    d="M234.024 5C234.024 2.23858 231.795 0 229.045 0C226.295 0 224.065 2.23858 224.065 5C224.065 7.76142 226.295 10 229.045 10C231.795 10 234.024 7.76142 234.024 5Z"
    fill="#60695C" fill-opacity="0.05" />
  <path
    d="M256.93 0H250.955C249.855 0 248.963 0.89543 248.963 2V8C248.963 9.10457 249.855 10 250.955 10H256.93C258.03 10 258.921 9.10457 258.921 8V2C258.921 0.89543 258.03 0 256.93 0Z"
    fill="#60695C" fill-opacity="0.05" />
  <path
    d="M283.818 5C283.818 2.23858 281.589 0 278.839 0C276.089 0 273.859 2.23858 273.859 5C273.859 7.76142 276.089 10 278.839 10C281.589 10 283.818 7.76142 283.818 5Z"
    fill="#60695C" fill-opacity="0.05" />
  <path
    d="M306.721 0H300.746C299.646 0 298.754 0.89543 298.754 2V8C298.754 9.10457 299.646 10 300.746 10H306.721C307.821 10 308.712 9.10457 308.712 8V2C308.712 0.89543 307.821 0 306.721 0Z"
    fill="#60695C" fill-opacity="0.05" />
  <path
    d="M333.61 5C333.61 2.23858 331.381 0 328.631 0C325.881 0 323.651 2.23858 323.651 5C323.651 7.76142 325.881 10 328.631 10C331.381 10 333.61 7.76142 333.61 5Z"
    fill="#60695C" fill-opacity="0.05" />
  <path
    d="M356.515 0H350.54C349.44 0 348.548 0.89543 348.548 2V8C348.548 9.10457 349.44 10 350.54 10H356.515C357.615 10 358.506 9.10457 358.506 8V2C358.506 0.89543 357.615 0 356.515 0Z"
    fill="#60695C" fill-opacity="0.05" />
  <path
    d="M383.404 5C383.404 2.23858 381.175 0 378.425 0C375.675 0 373.445 2.23858 373.445 5C373.445 7.76142 375.675 10 378.425 10C381.175 10 383.404 7.76142 383.404 5Z"
    fill="#60695C" fill-opacity="0.05" />
  <path
    d="M406.307 0H400.332C399.232 0 398.34 0.89543 398.34 2V8C398.34 9.10457 399.232 10 400.332 10H406.307C407.407 10 408.298 9.10457 408.298 8V2C408.298 0.89543 407.407 0 406.307 0Z"
    fill="#60695C" fill-opacity="0.05" />
  <path
    d="M433.195 5C433.195 2.23858 430.966 0 428.216 0C425.466 0 423.236 2.23858 423.236 5C423.236 7.76142 425.466 10 428.216 10C430.966 10 433.195 7.76142 433.195 5Z"
    fill="#60695C" fill-opacity="0.05" />
  <path
    d="M456.101 0H450.125C449.026 0 448.134 0.89543 448.134 2V8C448.134 9.10457 449.026 10 450.125 10H456.101C457.201 10 458.092 9.10457 458.092 8V2C458.092 0.89543 457.201 0 456.101 0Z"
    fill="#60695C" fill-opacity="0.05" />
  <path
    d="M482.987 5C482.987 2.23858 480.758 0 478.008 0C475.258 0 473.028 2.23858 473.028 5C473.028 7.76142 475.258 10 478.008 10C480.758 10 482.987 7.76142 482.987 5Z"
    fill="#60695C" fill-opacity="0.05" />
  <path
    d="M505.892 0H499.917C498.817 0 497.925 0.89543 497.925 2V8C497.925 9.10457 498.817 10 499.917 10H505.892C506.992 10 507.883 9.10457 507.883 8V2C507.883 0.89543 506.992 0 505.892 0Z"
    fill="#60695C" fill-opacity="0.05" />
  <path
    d="M532.781 5C532.781 2.23858 530.551 0 527.802 0C525.052 0 522.822 2.23858 522.822 5C522.822 7.76142 525.052 10 527.802 10C530.551 10 532.781 7.76142 532.781 5Z"
    fill="#60695C" fill-opacity="0.05" />
  <path
    d="M555.686 0H549.71C548.61 0 547.719 0.89543 547.719 2V8C547.719 9.10457 548.61 10 549.71 10H555.686C556.786 10 557.677 9.10457 557.677 8V2C557.677 0.89543 556.786 0 555.686 0Z"
    fill="#60695C" fill-opacity="0.05" />
  <path
    d="M582.572 5C582.572 2.23858 580.343 0 577.593 0C574.843 0 572.613 2.23858 572.613 5C572.613 7.76142 574.843 10 577.593 10C580.343 10 582.572 7.76142 582.572 5Z"
    fill="#60695C" fill-opacity="0.05" />
  <path
    d="M605.478 0H599.502C598.402 0 597.511 0.89543 597.511 2V8C597.511 9.10457 598.402 10 599.502 10H605.478C606.578 10 607.469 9.10457 607.469 8V2C607.469 0.89543 606.578 0 605.478 0Z"
    fill="#60695C" fill-opacity="0.05" />
  <path
    d="M632.367 5C632.367 2.23858 630.137 0 627.387 0C624.637 0 622.408 2.23858 622.408 5C622.408 7.76142 624.637 10 627.387 10C630.137 10 632.367 7.76142 632.367 5Z"
    fill="#60695C" fill-opacity="0.05" />
  <path
    d="M655.269 0H649.293C648.193 0 647.302 0.89543 647.302 2V8C647.302 9.10457 648.193 10 649.293 10H655.269C656.369 10 657.26 9.10457 657.26 8V2C657.26 0.89543 656.369 0 655.269 0Z"
    fill="#60695C" fill-opacity="0.05" />
  <path
    d="M682.158 5C682.158 2.23858 679.928 0 677.178 0C674.429 0 672.199 2.23858 672.199 5C672.199 7.76142 674.429 10 677.178 10C679.928 10 682.158 7.76142 682.158 5Z"
    fill="#60695C" fill-opacity="0.05" />
  <path
    d="M705.063 0H699.088C697.988 0 697.097 0.89543 697.097 2V8C697.097 9.10457 697.988 10 699.088 10H705.063C706.163 10 707.055 9.10457 707.055 8V2C707.055 0.89543 706.163 0 705.063 0Z"
    fill="#60695C" fill-opacity="0.05" />
  <path
    d="M731.949 5C731.949 2.23858 729.719 0 726.969 0C724.22 0 721.99 2.23858 721.99 5C721.99 7.76142 724.22 10 726.969 10C729.719 10 731.949 7.76142 731.949 5Z"
    fill="#60695C" fill-opacity="0.05" />
  <path
    d="M754.855 0H748.879C747.779 0 746.888 0.89543 746.888 2V8C746.888 9.10457 747.779 10 748.879 10H754.855C755.954 10 756.846 9.10457 756.846 8V2C756.846 0.89543 755.954 0 754.855 0Z"
    fill="#60695C" fill-opacity="0.05" />
  <path
    d="M781.744 5C781.744 2.23858 779.514 0 776.764 0C774.014 0 771.785 2.23858 771.785 5C771.785 7.76142 774.014 10 776.764 10C779.514 10 781.744 7.76142 781.744 5Z"
    fill="#60695C" fill-opacity="0.05" />
  <path
    d="M804.646 0H798.671C797.571 0 796.68 0.89543 796.68 2V8C796.68 9.10457 797.571 10 798.671 10H804.646C805.746 10 806.638 9.10457 806.638 8V2C806.638 0.89543 805.746 0 804.646 0Z"
    fill="#60695C" fill-opacity="0.05" />
  <path
    d="M831.535 5C831.535 2.23858 829.305 0 826.555 0C823.805 0 821.576 2.23858 821.576 5C821.576 7.76142 823.805 10 826.555 10C829.305 10 831.535 7.76142 831.535 5Z"
    fill="#60695C" fill-opacity="0.05" />
  <path
    d="M854.44 0H848.465C847.365 0 846.474 0.89543 846.474 2V8C846.474 9.10457 847.365 10 848.465 10H854.44C855.54 10 856.432 9.10457 856.432 8V2C856.432 0.89543 855.54 0 854.44 0Z"
    fill="#60695C" fill-opacity="0.05" />
  <path
    d="M881.329 5C881.329 2.23858 879.099 0 876.349 0C873.599 0 871.37 2.23858 871.37 5C871.37 7.76142 873.599 10 876.349 10C879.099 10 881.329 7.76142 881.329 5Z"
    fill="#60695C" fill-opacity="0.05" />
  <path
    d="M904.231 0H898.256C897.156 0 896.265 0.89543 896.265 2V8C896.265 9.10457 897.156 10 898.256 10H904.231C905.331 10 906.223 9.10457 906.223 8V2C906.223 0.89543 905.331 0 904.231 0Z"
    fill="#60695C" fill-opacity="0.05" />
  <path
    d="M931.121 5C931.121 2.23858 928.891 0 926.141 0C923.391 0 921.162 2.23858 921.162 5C921.162 7.76142 923.391 10 926.141 10C928.891 10 931.121 7.76142 931.121 5Z"
    fill="#60695C" fill-opacity="0.05" />
  <path
    d="M954.025 0H948.05C946.95 0 946.059 0.89543 946.059 2V8C946.059 9.10457 946.95 10 948.05 10H954.025C955.125 10 956.017 9.10457 956.017 8V2C956.017 0.89543 955.125 0 954.025 0Z"
    fill="#60695C" fill-opacity="0.05" />
  <path
    d="M980.912 5C980.912 2.23858 978.682 0 975.932 0C973.182 0 970.953 2.23858 970.953 5C970.953 7.76142 973.182 10 975.932 10C978.682 10 980.912 7.76142 980.912 5Z"
    fill="#60695C" fill-opacity="0.05" />
  <path
    d="M1003.82 0H997.842C996.742 0 995.851 0.89543 995.851 2V8C995.851 9.10457 996.742 10 997.842 10H1003.82C1004.92 10 1005.81 9.10457 1005.81 8V2C1005.81 0.89543 1004.92 0 1003.82 0Z"
    fill="#60695C" fill-opacity="0.05" />
  <path
    d="M1030.71 5C1030.71 2.23858 1028.48 0 1025.73 0C1022.98 0 1020.75 2.23858 1020.75 5C1020.75 7.76142 1022.98 10 1025.73 10C1028.48 10 1030.71 7.76142 1030.71 5Z"
    fill="#60695C" fill-opacity="0.05" />
  <path
    d="M1053.61 0H1047.64C1046.54 0 1045.64 0.89543 1045.64 2V8C1045.64 9.10457 1046.54 10 1047.64 10H1053.61C1054.71 10 1055.6 9.10457 1055.6 8V2C1055.6 0.89543 1054.71 0 1053.61 0Z"
    fill="#60695C" fill-opacity="0.05" />
  <path
    d="M1080.5 5C1080.5 2.23858 1078.27 0 1075.52 0C1072.77 0 1070.54 2.23858 1070.54 5C1070.54 7.76142 1072.77 10 1075.52 10C1078.27 10 1080.5 7.76142 1080.5 5Z"
    fill="#60695C" fill-opacity="0.05" />
  <path
    d="M1103.4 0H1097.43C1096.33 0 1095.44 0.89543 1095.44 2V8C1095.44 9.10457 1096.33 10 1097.43 10H1103.4C1104.5 10 1105.39 9.10457 1105.39 8V2C1105.39 0.89543 1104.5 0 1103.4 0Z"
    fill="#60695C" fill-opacity="0.05" />
  <path
    d="M1130.29 5C1130.29 2.23858 1128.06 0 1125.31 0C1122.56 0 1120.33 2.23858 1120.33 5C1120.33 7.76142 1122.56 10 1125.31 10C1128.06 10 1130.29 7.76142 1130.29 5Z"
    fill="#60695C" fill-opacity="0.05" />
  <path
    d="M1153.19 0H1147.22C1146.12 0 1145.23 0.89543 1145.23 2V8C1145.23 9.10457 1146.12 10 1147.22 10H1153.19C1154.29 10 1155.19 9.10457 1155.19 8V2C1155.19 0.89543 1154.29 0 1153.19 0Z"
    fill="#60695C" fill-opacity="0.05" />
  <path
    d="M1180.08 5C1180.08 2.23858 1177.85 0 1175.1 0C1172.35 0 1170.12 2.23858 1170.12 5C1170.12 7.76142 1172.35 10 1175.1 10C1177.85 10 1180.08 7.76142 1180.08 5Z"
    fill="#60695C" fill-opacity="0.05" />
  <path
    d="M1202.99 0H1197.01C1195.91 0 1195.02 0.89543 1195.02 2V8C1195.02 9.10457 1195.91 10 1197.01 10H1202.99C1204.09 10 1204.98 9.10457 1204.98 8V2C1204.98 0.89543 1204.09 0 1202.99 0Z"
    fill="#60695C" fill-opacity="0.05" />
  <path
    d="M1229.88 5C1229.88 2.23858 1227.65 0 1224.9 0C1222.15 0 1219.92 2.23858 1219.92 5C1219.92 7.76142 1222.15 10 1224.9 10C1227.65 10 1229.88 7.76142 1229.88 5Z"
    fill="#60695C" fill-opacity="0.05" />
  <path
    d="M19.916 25H13.9409C12.8409 25 11.9492 25.8954 11.9492 27V33C11.9492 34.1046 12.8409 35 13.9409 35H19.916C21.016 35 21.9077 34.1046 21.9077 33V27C21.9077 25.8954 21.016 25 19.916 25Z"
    fill="#60695C" fill-opacity="0.05" />
  <path
    d="M46.8042 30C46.8042 27.2386 44.5749 25 41.825 25C39.075 25 36.8457 27.2386 36.8457 30C36.8457 32.7614 39.075 35 41.825 35C44.5749 35 46.8042 32.7614 46.8042 30Z"
    fill="#60695C" fill-opacity="0.05" />
  <path
    d="M69.71 25H63.7349C62.6349 25 61.7432 25.8954 61.7432 27V33C61.7432 34.1046 62.6349 35 63.7349 35H69.71C70.81 35 71.7017 34.1046 71.7017 33V27C71.7017 25.8954 70.81 25 69.71 25Z"
    fill="#60695C" fill-opacity="0.05" />
  <path
    d="M96.5991 30C96.5991 27.2386 94.3698 25 91.6199 25C88.8699 25 86.6406 27.2386 86.6406 30C86.6406 32.7614 88.8699 35 91.6199 35C94.3698 35 96.5991 32.7614 96.5991 30Z"
    fill="#60695C" fill-opacity="0.05" />
  <path
    d="M119.501 25H113.526C112.426 25 111.534 25.8954 111.534 27V33C111.534 34.1046 112.426 35 113.526 35H119.501C120.601 35 121.493 34.1046 121.493 33V27C121.493 25.8954 120.601 25 119.501 25Z"
    fill="#60695C" fill-opacity="0.05" />
  <path
    d="M146.39 30C146.39 27.2386 144.161 25 141.411 25C138.661 25 136.432 27.2386 136.432 30C136.432 32.7614 138.661 35 141.411 35C144.161 35 146.39 32.7614 146.39 30Z"
    fill="#60695C" fill-opacity="0.05" />
  <path
    d="M169.296 25H163.321C162.221 25 161.329 25.8954 161.329 27V33C161.329 34.1046 162.221 35 163.321 35H169.296C170.396 35 171.288 34.1046 171.288 33V27C171.288 25.8954 170.396 25 169.296 25Z"
    fill="#60695C" fill-opacity="0.05" />
  <path
    d="M196.181 30C196.181 27.2386 193.952 25 191.202 25C188.452 25 186.223 27.2386 186.223 30C186.223 32.7614 188.452 35 191.202 35C193.952 35 196.181 32.7614 196.181 30Z"
    fill="#60695C" fill-opacity="0.05" />
  <path
    d="M219.087 25H213.112C212.012 25 211.12 25.8954 211.12 27V33C211.12 34.1046 212.012 35 213.112 35H219.087C220.187 35 221.079 34.1046 221.079 33V27C221.079 25.8954 220.187 25 219.087 25Z"
    fill="#60695C" fill-opacity="0.05" />
  <path
    d="M245.976 30C245.976 27.2386 243.747 25 240.997 25C238.247 25 236.018 27.2386 236.018 30C236.018 32.7614 238.247 35 240.997 35C243.747 35 245.976 32.7614 245.976 30Z"
    fill="#60695C" fill-opacity="0.05" />
  <path
    d="M268.881 25H262.906C261.806 25 260.914 25.8954 260.914 27V33C260.914 34.1046 261.806 35 262.906 35H268.881C269.981 35 270.873 34.1046 270.873 33V27C270.873 25.8954 269.981 25 268.881 25Z"
    fill="#60695C" fill-opacity="0.05" />
  <path
    d="M295.767 30C295.767 27.2386 293.538 25 290.788 25C288.038 25 285.809 27.2386 285.809 30C285.809 32.7614 288.038 35 290.788 35C293.538 35 295.767 32.7614 295.767 30Z"
    fill="#60695C" fill-opacity="0.05" />
  <path
    d="M318.673 25H312.698C311.598 25 310.706 25.8954 310.706 27V33C310.706 34.1046 311.598 35 312.698 35H318.673C319.773 35 320.665 34.1046 320.665 33V27C320.665 25.8954 319.773 25 318.673 25Z"
    fill="#60695C" fill-opacity="0.05" />
  <path
    d="M345.561 30C345.561 27.2386 343.332 25 340.582 25C337.832 25 335.603 27.2386 335.603 30C335.603 32.7614 337.832 35 340.582 35C343.332 35 345.561 32.7614 345.561 30Z"
    fill="#60695C" fill-opacity="0.05" />
  <path
    d="M368.464 25H362.489C361.389 25 360.497 25.8954 360.497 27V33C360.497 34.1046 361.389 35 362.489 35H368.464C369.564 35 370.456 34.1046 370.456 33V27C370.456 25.8954 369.564 25 368.464 25Z"
    fill="#60695C" fill-opacity="0.05" />
  <path
    d="M395.352 30C395.352 27.2386 393.123 25 390.373 25C387.623 25 385.394 27.2386 385.394 30C385.394 32.7614 387.623 35 390.373 35C393.123 35 395.352 32.7614 395.352 30Z"
    fill="#60695C" fill-opacity="0.05" />
  <path
    d="M418.258 25H412.283C411.183 25 410.291 25.8954 410.291 27V33C410.291 34.1046 411.183 35 412.283 35H418.258C419.358 35 420.25 34.1046 420.25 33V27C420.25 25.8954 419.358 25 418.258 25Z"
    fill="#60695C" fill-opacity="0.05" />
  <path
    d="M445.144 30C445.144 27.2386 442.915 25 440.165 25C437.415 25 435.186 27.2386 435.186 30C435.186 32.7614 437.415 35 440.165 35C442.915 35 445.144 32.7614 445.144 30Z"
    fill="#60695C" fill-opacity="0.05" />
  <path
    d="M468.049 25H462.074C460.974 25 460.082 25.8954 460.082 27V33C460.082 34.1046 460.974 35 462.074 35H468.049C469.149 35 470.041 34.1046 470.041 33V27C470.041 25.8954 469.149 25 468.049 25Z"
    fill="#60695C" fill-opacity="0.05" />
  <path
    d="M494.938 30C494.938 27.2386 492.709 25 489.959 25C487.209 25 484.979 27.2386 484.979 30C484.979 32.7614 487.209 35 489.959 35C492.709 35 494.938 32.7614 494.938 30Z"
    fill="#60695C" fill-opacity="0.05" />
  <path
    d="M517.844 25H511.869C510.769 25 509.877 25.8954 509.877 27V33C509.877 34.1046 510.769 35 511.869 35H517.844C518.944 35 519.835 34.1046 519.835 33V27C519.835 25.8954 518.944 25 517.844 25Z"
    fill="#60695C" fill-opacity="0.05" />
  <path
    d="M544.729 30C544.729 27.2386 542.5 25 539.75 25C537 25 534.771 27.2386 534.771 30C534.771 32.7614 537 35 539.75 35C542.5 35 544.729 32.7614 544.729 30Z"
    fill="#60695C" fill-opacity="0.05" />
  <path
    d="M567.635 25H561.66C560.56 25 559.668 25.8954 559.668 27V33C559.668 34.1046 560.56 35 561.66 35H567.635C568.735 35 569.626 34.1046 569.626 33V27C569.626 25.8954 568.735 25 567.635 25Z"
    fill="#60695C" fill-opacity="0.05" />
  <path
    d="M594.524 30C594.524 27.2386 592.295 25 589.545 25C586.795 25 584.565 27.2386 584.565 30C584.565 32.7614 586.795 35 589.545 35C592.295 35 594.524 32.7614 594.524 30Z"
    fill="#60695C" fill-opacity="0.05" />
  <path
    d="M617.426 25H611.451C610.351 25 609.459 25.8954 609.459 27V33C609.459 34.1046 610.351 35 611.451 35H617.426C618.526 35 619.417 34.1046 619.417 33V27C619.417 25.8954 618.526 25 617.426 25Z"
    fill="#60695C" fill-opacity="0.05" />
  <path
    d="M644.315 30C644.315 27.2386 642.086 25 639.336 25C636.586 25 634.356 27.2386 634.356 30C634.356 32.7614 636.586 35 639.336 35C642.086 35 644.315 32.7614 644.315 30Z"
    fill="#60695C" fill-opacity="0.05" />
  <path
    d="M667.221 25H661.246C660.146 25 659.254 25.8954 659.254 27V33C659.254 34.1046 660.146 35 661.246 35H667.221C668.321 35 669.212 34.1046 669.212 33V27C669.212 25.8954 668.321 25 667.221 25Z"
    fill="#60695C" fill-opacity="0.05" />
  <path
    d="M694.107 30C694.107 27.2386 691.878 25 689.128 25C686.378 25 684.148 27.2386 684.148 30C684.148 32.7614 686.378 35 689.128 35C691.878 35 694.107 32.7614 694.107 30Z"
    fill="#60695C" fill-opacity="0.05" />
  <path
    d="M717.012 25H711.037C709.937 25 709.045 25.8954 709.045 27V33C709.045 34.1046 709.937 35 711.037 35H717.012C718.112 35 719.003 34.1046 719.003 33V27C719.003 25.8954 718.112 25 717.012 25Z"
    fill="#60695C" fill-opacity="0.05" />
  <path
    d="M743.901 30C743.901 27.2386 741.672 25 738.922 25C736.172 25 733.942 27.2386 733.942 30C733.942 32.7614 736.172 35 738.922 35C741.672 35 743.901 32.7614 743.901 30Z"
    fill="#60695C" fill-opacity="0.05" />
  <path
    d="M766.806 25H760.831C759.731 25 758.839 25.8954 758.839 27V33C758.839 34.1046 759.731 35 760.831 35H766.806C767.906 35 768.797 34.1046 768.797 33V27C768.797 25.8954 767.906 25 766.806 25Z"
    fill="#60695C" fill-opacity="0.05" />
  <path
    d="M793.692 30C793.692 27.2386 791.463 25 788.713 25C785.963 25 783.733 27.2386 783.733 30C783.733 32.7614 785.963 35 788.713 35C791.463 35 793.692 32.7614 793.692 30Z"
    fill="#60695C" fill-opacity="0.05" />
  <path
    d="M816.598 25H810.623C809.523 25 808.631 25.8954 808.631 27V33C808.631 34.1046 809.523 35 810.623 35H816.598C817.698 35 818.589 34.1046 818.589 33V27C818.589 25.8954 817.698 25 816.598 25Z"
    fill="#60695C" fill-opacity="0.05" />
  <path
    d="M843.486 30C843.486 27.2386 841.257 25 838.507 25C835.757 25 833.527 27.2386 833.527 30C833.527 32.7614 835.757 35 838.507 35C841.257 35 843.486 32.7614 843.486 30Z"
    fill="#60695C" fill-opacity="0.05" />
  <path
    d="M866.389 25H860.414C859.314 25 858.422 25.8954 858.422 27V33C858.422 34.1046 859.314 35 860.414 35H866.389C867.489 35 868.38 34.1046 868.38 33V27C868.38 25.8954 867.489 25 866.389 25Z"
    fill="#60695C" fill-opacity="0.05" />
  <path
    d="M893.278 30C893.278 27.2386 891.049 25 888.299 25C885.549 25 883.319 27.2386 883.319 30C883.319 32.7614 885.549 35 888.299 35C891.049 35 893.278 32.7614 893.278 30Z"
    fill="#60695C" fill-opacity="0.05" />
  <path
    d="M916.183 25H910.208C909.108 25 908.216 25.8954 908.216 27V33C908.216 34.1046 909.108 35 910.208 35H916.183C917.283 35 918.174 34.1046 918.174 33V27C918.174 25.8954 917.283 25 916.183 25Z"
    fill="#60695C" fill-opacity="0.05" />
  <path
    d="M943.072 30C943.072 27.2386 940.843 25 938.093 25C935.343 25 933.113 27.2386 933.113 30C933.113 32.7614 935.343 35 938.093 35C940.843 35 943.072 32.7614 943.072 30Z"
    fill="#60695C" fill-opacity="0.05" />
  <path
    d="M965.975 25H960C958.9 25 958.008 25.8954 958.008 27V33C958.008 34.1046 958.9 35 960 35H965.975C967.075 35 967.966 34.1046 967.966 33V27C967.966 25.8954 967.075 25 965.975 25Z"
    fill="#60695C" fill-opacity="0.05" />
  <path
    d="M992.863 30C992.863 27.2386 990.634 25 987.884 25C985.134 25 982.904 27.2386 982.904 30C982.904 32.7614 985.134 35 987.884 35C990.634 35 992.863 32.7614 992.863 30Z"
    fill="#60695C" fill-opacity="0.05" />
  <path
    d="M1015.77 25H1009.79C1008.69 25 1007.8 25.8954 1007.8 27V33C1007.8 34.1046 1008.69 35 1009.79 35H1015.77C1016.87 35 1017.76 34.1046 1017.76 33V27C1017.76 25.8954 1016.87 25 1015.77 25Z"
    fill="#60695C" fill-opacity="0.05" />
  <path
    d="M1042.65 30C1042.65 27.2386 1040.43 25 1037.68 25C1034.93 25 1032.7 27.2386 1032.7 30C1032.7 32.7614 1034.93 35 1037.68 35C1040.43 35 1042.65 32.7614 1042.65 30Z"
    fill="#60695C" fill-opacity="0.05" />
  <path
    d="M1065.56 25H1059.58C1058.48 25 1057.59 25.8954 1057.59 27V33C1057.59 34.1046 1058.48 35 1059.58 35H1065.56C1066.66 35 1067.55 34.1046 1067.55 33V27C1067.55 25.8954 1066.66 25 1065.56 25Z"
    fill="#60695C" fill-opacity="0.05" />
  <path
    d="M1092.45 30C1092.45 27.2386 1090.22 25 1087.47 25C1084.72 25 1082.49 27.2386 1082.49 30C1082.49 32.7614 1084.72 35 1087.47 35C1090.22 35 1092.45 32.7614 1092.45 30Z"
    fill="#60695C" fill-opacity="0.05" />
  <path
    d="M1115.35 25H1109.38C1108.28 25 1107.39 25.8954 1107.39 27V33C1107.39 34.1046 1108.28 35 1109.38 35H1115.35C1116.45 35 1117.35 34.1046 1117.35 33V27C1117.35 25.8954 1116.45 25 1115.35 25Z"
    fill="#60695C" fill-opacity="0.05" />
  <path
    d="M1142.24 30C1142.24 27.2386 1140.01 25 1137.26 25C1134.51 25 1132.28 27.2386 1132.28 30C1132.28 32.7614 1134.51 35 1137.26 35C1140.01 35 1142.24 32.7614 1142.24 30Z"
    fill="#60695C" fill-opacity="0.05" />
  <path
    d="M1165.15 25H1159.17C1158.07 25 1157.18 25.8954 1157.18 27V33C1157.18 34.1046 1158.07 35 1159.17 35H1165.15C1166.25 35 1167.14 34.1046 1167.14 33V27C1167.14 25.8954 1166.25 25 1165.15 25Z"
    fill="#60695C" fill-opacity="0.05" />
  <path
    d="M1192.03 30C1192.03 27.2386 1189.81 25 1187.06 25C1184.31 25 1182.08 27.2386 1182.08 30C1182.08 32.7614 1184.31 35 1187.06 35C1189.81 35 1192.03 32.7614 1192.03 30Z"
    fill="#60695C" fill-opacity="0.05" />
  <path
    d="M1214.94 25H1208.96C1207.86 25 1206.97 25.8954 1206.97 27V33C1206.97 34.1046 1207.86 35 1208.96 35H1214.94C1216.04 35 1216.93 34.1046 1216.93 33V27C1216.93 25.8954 1216.04 25 1214.94 25Z"
    fill="#60695C" fill-opacity="0.05" />
  <path
    d="M1241.83 30C1241.83 27.2386 1239.6 25 1236.85 25C1234.1 25 1231.87 27.2386 1231.87 30C1231.87 32.7614 1234.1 35 1236.85 35C1239.6 35 1241.83 32.7614 1241.83 30Z"
    fill="#60695C" fill-opacity="0.05" />
  <path
    d="M1252.78 0H1246.8C1245.7 0 1244.81 0.89543 1244.81 2V8C1244.81 9.10457 1245.7 10 1246.8 10H1252.78C1253.88 10 1254.77 9.10457 1254.77 8V2C1254.77 0.89543 1253.88 0 1252.78 0Z"
    fill="#60695C" fill-opacity="0.05" />
  <path
    d="M1279.67 5C1279.67 2.23858 1277.44 0 1274.69 0C1271.94 0 1269.71 2.23858 1269.71 5C1269.71 7.76142 1271.94 10 1274.69 10C1277.44 10 1279.67 7.76142 1279.67 5Z"
    fill="#60695C" fill-opacity="0.05" />
  <path
    d="M1302.57 0H1296.6C1295.5 0 1294.61 0.89543 1294.61 2V8C1294.61 9.10457 1295.5 10 1296.6 10H1302.57C1303.67 10 1304.56 9.10457 1304.56 8V2C1304.56 0.89543 1303.67 0 1302.57 0Z"
    fill="#60695C" fill-opacity="0.05" />
  <path
    d="M1329.46 5C1329.46 2.23858 1327.23 0 1324.48 0C1321.73 0 1319.5 2.23858 1319.5 5C1319.5 7.76142 1321.73 10 1324.48 10C1327.23 10 1329.46 7.76142 1329.46 5Z"
    fill="#60695C" fill-opacity="0.05" />
  <path
    d="M1352.37 0H1346.39C1345.29 0 1344.4 0.89543 1344.4 2V8C1344.4 9.10457 1345.29 10 1346.39 10H1352.37C1353.47 10 1354.36 9.10457 1354.36 8V2C1354.36 0.89543 1353.47 0 1352.37 0Z"
    fill="#60695C" fill-opacity="0.05" />
  <path
    d="M1379.25 5C1379.25 2.23858 1377.02 0 1374.27 0C1371.52 0 1369.29 2.23858 1369.29 5C1369.29 7.76142 1371.52 10 1374.27 10C1377.02 10 1379.25 7.76142 1379.25 5Z"
    fill="#60695C" fill-opacity="0.05" />
  <path
    d="M1402.16 0H1396.18C1395.08 0 1394.19 0.89543 1394.19 2V8C1394.19 9.10457 1395.08 10 1396.18 10H1402.16C1403.26 10 1404.15 9.10457 1404.15 8V2C1404.15 0.89543 1403.26 0 1402.16 0Z"
    fill="#60695C" fill-opacity="0.05" />
  <path
    d="M1429.05 5C1429.05 2.23858 1426.82 0 1424.07 0C1421.32 0 1419.09 2.23858 1419.09 5C1419.09 7.76142 1421.32 10 1424.07 10C1426.82 10 1429.05 7.76142 1429.05 5Z"
    fill="#60695C" fill-opacity="0.05" />
  <path
    d="M1264.73 25H1258.76C1257.66 25 1256.76 25.8954 1256.76 27V33C1256.76 34.1046 1257.66 35 1258.76 35H1264.73C1265.83 35 1266.72 34.1046 1266.72 33V27C1266.72 25.8954 1265.83 25 1264.73 25Z"
    fill="#60695C" fill-opacity="0.05" />
  <path
    d="M1291.62 30C1291.62 27.2386 1289.39 25 1286.64 25C1283.89 25 1281.66 27.2386 1281.66 30C1281.66 32.7614 1283.89 35 1286.64 35C1289.39 35 1291.62 32.7614 1291.62 30Z"
    fill="#60695C" fill-opacity="0.05" />
  <path
    d="M1314.52 25H1308.55C1307.45 25 1306.56 25.8954 1306.56 27V33C1306.56 34.1046 1307.45 35 1308.55 35H1314.52C1315.62 35 1316.51 34.1046 1316.51 33V27C1316.51 25.8954 1315.62 25 1314.52 25Z"
    fill="#60695C" fill-opacity="0.05" />
  <path
    d="M1341.41 30C1341.41 27.2386 1339.18 25 1336.43 25C1333.68 25 1331.45 27.2386 1331.45 30C1331.45 32.7614 1333.68 35 1336.43 35C1339.18 35 1341.41 32.7614 1341.41 30Z"
    fill="#60695C" fill-opacity="0.05" />
  <path
    d="M1364.31 25H1358.34C1357.24 25 1356.35 25.8954 1356.35 27V33C1356.35 34.1046 1357.24 35 1358.34 35H1364.31C1365.41 35 1366.31 34.1046 1366.31 33V27C1366.31 25.8954 1365.41 25 1364.31 25Z"
    fill="#60695C" fill-opacity="0.05" />
  <path
    d="M1391.2 30C1391.2 27.2386 1388.97 25 1386.22 25C1383.47 25 1381.24 27.2386 1381.24 30C1381.24 32.7614 1383.47 35 1386.22 35C1388.97 35 1391.2 32.7614 1391.2 30Z"
    fill="#60695C" fill-opacity="0.05" />
  <path
    d="M1440 30C1440 27.2386 1437.77 25 1435.02 25C1432.27 25 1430.04 27.2386 1430.04 30C1430.04 32.7614 1432.27 35 1435.02 35C1437.77 35 1440 32.7614 1440 30Z"
    fill="#60695C" fill-opacity="0.05" />
  <path
    d="M1414.11 25H1408.13C1407.03 25 1406.14 25.8954 1406.14 27V33C1406.14 34.1046 1407.03 35 1408.13 35H1414.11C1415.21 35 1416.1 34.1046 1416.1 33V27C1416.1 25.8954 1415.21 25 1414.11 25Z"
    fill="#60695C" fill-opacity="0.05" />
  <path
    d="M34.856 5C34.856 2.23858 32.6267 0 29.8767 0C27.1267 0 24.8975 2.23858 24.8975 5C24.8975 7.76142 27.1267 10 29.8767 10C32.6267 10 34.856 7.76142 34.856 5Z"
    fill="#60695C" fill-opacity="0.05" />
</svg>
