<svg
  width="166"
  height="161"
  viewBox="0 0 166 161"
  fill="none"
  xmlns="http://www.w3.org/2000/svg"
>
  <ellipse
    cx="2.61216"
    cy="2.53765"
    rx="2.61313"
    ry="2.53765"
    fill="#d1462e99"></ellipse>
  <ellipse
    cx="20.3817"
    cy="2.53765"
    rx="2.61313"
    ry="2.53765"
    fill="#d1462e99"></ellipse>
  <ellipse
    cx="38.1502"
    cy="2.53765"
    rx="2.61313"
    ry="2.53765"
    fill="#d1462e99"></ellipse>
  <ellipse
    cx="38.1502"
    cy="71.5618"
    rx="2.61313"
    ry="2.53765"
    fill="#d1462e99"></ellipse>
  <ellipse
    cx="38.1502"
    cy="37.0499"
    rx="2.61313"
    ry="2.53765"
    fill="#d1462e99"></ellipse>
  <ellipse
    cx="38.1502"
    cy="106.074"
    rx="2.61313"
    ry="2.53765"
    fill="#d1462e99"></ellipse>
  <ellipse
    cx="38.1502"
    cy="140.586"
    rx="2.61313"
    ry="2.53765"
    fill="#d1462e99"></ellipse>
  <ellipse
    cx="55.9198"
    cy="2.53765"
    rx="2.61313"
    ry="2.53765"
    fill="#d1462e99"></ellipse>
  <ellipse
    cx="55.9198"
    cy="71.5618"
    rx="2.61313"
    ry="2.53765"
    fill="#d1462e99"></ellipse>
  <ellipse
    cx="55.9198"
    cy="37.0499"
    rx="2.61313"
    ry="2.53765"
    fill="#d1462e99"></ellipse>
  <ellipse
    cx="55.9198"
    cy="106.074"
    rx="2.61313"
    ry="2.53765"
    fill="#d1462e99"></ellipse>
  <ellipse
    cx="55.9198"
    cy="140.586"
    rx="2.61313"
    ry="2.53765"
    fill="#d1462e99"></ellipse>
  <ellipse
    cx="73.6893"
    cy="2.53765"
    rx="2.61313"
    ry="2.53765"
    fill="#d1462e99"></ellipse>
  <ellipse
    cx="73.6893"
    cy="71.5618"
    rx="2.61313"
    ry="2.53765"
    fill="#d1462e99"></ellipse>
  <ellipse
    cx="73.6893"
    cy="37.0499"
    rx="2.61313"
    ry="2.53765"
    fill="#d1462e99"></ellipse>
  <ellipse
    cx="73.6893"
    cy="106.074"
    rx="2.61313"
    ry="2.53765"
    fill="#d1462e99"></ellipse>
  <ellipse
    cx="73.6893"
    cy="140.586"
    rx="2.61313"
    ry="2.53765"
    fill="#d1462e99"></ellipse>
  <ellipse
    cx="91.4588"
    cy="2.53765"
    rx="2.61313"
    ry="2.53765"
    fill="#d1462e99"></ellipse>
  <ellipse
    cx="91.4588"
    cy="71.5618"
    rx="2.61313"
    ry="2.53765"
    fill="#d1462e99"></ellipse>
  <ellipse
    cx="91.4588"
    cy="37.0499"
    rx="2.61313"
    ry="2.53765"
    fill="#d1462e99"></ellipse>
  <ellipse
    cx="91.4588"
    cy="106.074"
    rx="2.61313"
    ry="2.53765"
    fill="#d1462e99"></ellipse>
  <ellipse
    cx="91.4588"
    cy="140.586"
    rx="2.61313"
    ry="2.53765"
    fill="#d1462e99"></ellipse>
  <ellipse
    cx="109.228"
    cy="2.53765"
    rx="2.61313"
    ry="2.53765"
    fill="#d1462e99"></ellipse>
  <ellipse
    cx="109.228"
    cy="71.5618"
    rx="2.61313"
    ry="2.53765"
    fill="#d1462e99"></ellipse>
  <ellipse
    cx="109.228"
    cy="37.0499"
    rx="2.61313"
    ry="2.53765"
    fill="#d1462e99"></ellipse>
  <ellipse
    cx="109.228"
    cy="106.074"
    rx="2.61313"
    ry="2.53765"
    fill="#d1462e99"></ellipse>
  <ellipse
    cx="109.228"
    cy="140.586"
    rx="2.61313"
    ry="2.53765"
    fill="#d1462e99"></ellipse>
  <ellipse
    cx="126.997"
    cy="2.53765"
    rx="2.61313"
    ry="2.53765"
    fill="#d1462e99"></ellipse>
  <ellipse
    cx="126.997"
    cy="71.5618"
    rx="2.61313"
    ry="2.53765"
    fill="#d1462e99"></ellipse>
  <ellipse
    cx="126.997"
    cy="37.0499"
    rx="2.61313"
    ry="2.53765"
    fill="#d1462e99"></ellipse>
  <ellipse
    cx="126.997"
    cy="106.074"
    rx="2.61313"
    ry="2.53765"
    fill="#d1462e99"></ellipse>
  <ellipse
    cx="126.997"
    cy="140.586"
    rx="2.61313"
    ry="2.53765"
    fill="#d1462e99"></ellipse>
  <ellipse
    cx="144.766"
    cy="2.53765"
    rx="2.61313"
    ry="2.53765"
    fill="#d1462e99"></ellipse>
  <ellipse
    cx="144.766"
    cy="71.5618"
    rx="2.61313"
    ry="2.53765"
    fill="#d1462e99"></ellipse>
  <ellipse
    cx="144.766"
    cy="37.0499"
    rx="2.61313"
    ry="2.53765"
    fill="#d1462e99"></ellipse>
  <ellipse
    cx="144.766"
    cy="106.074"
    rx="2.61313"
    ry="2.53765"
    fill="#d1462e99"></ellipse>
  <ellipse
    cx="144.766"
    cy="140.586"
    rx="2.61313"
    ry="2.53765"
    fill="#d1462e99"></ellipse>
  <ellipse
    cx="162.536"
    cy="2.53765"
    rx="2.61313"
    ry="2.53765"
    fill="#d1462e99"></ellipse>
  <ellipse
    cx="162.536"
    cy="71.5618"
    rx="2.61313"
    ry="2.53765"
    fill="#d1462e99"></ellipse>
  <ellipse
    cx="162.536"
    cy="37.0499"
    rx="2.61313"
    ry="2.53765"
    fill="#d1462e99"></ellipse>
  <ellipse
    cx="162.536"
    cy="106.074"
    rx="2.61313"
    ry="2.53765"
    fill="#d1462e99"></ellipse>
  <ellipse
    cx="162.536"
    cy="140.586"
    rx="2.61313"
    ry="2.53765"
    fill="#d1462e99"></ellipse>
  <ellipse
    cx="162.536"
    cy="19.7938"
    rx="2.61313"
    ry="2.53765"
    fill="#d1462e99"></ellipse>
  <ellipse
    cx="162.536"
    cy="88.8179"
    rx="2.61313"
    ry="2.53765"
    fill="#d1462e99"></ellipse>
  <ellipse
    cx="162.536"
    cy="54.3057"
    rx="2.61313"
    ry="2.53765"
    fill="#d1462e99"></ellipse>
  <ellipse
    cx="162.536"
    cy="123.33"
    rx="2.61313"
    ry="2.53765"
    fill="#d1462e99"></ellipse>
  <ellipse
    cx="162.536"
    cy="157.842"
    rx="2.61313"
    ry="2.53765"
    fill="#d1462e99"></ellipse>
  <ellipse
    cx="144.766"
    cy="19.7938"
    rx="2.61313"
    ry="2.53765"
    fill="#d1462e99"></ellipse>
  <ellipse
    cx="144.766"
    cy="88.8179"
    rx="2.61313"
    ry="2.53765"
    fill="#d1462e99"></ellipse>
  <ellipse
    cx="144.766"
    cy="54.3057"
    rx="2.61313"
    ry="2.53765"
    fill="#d1462e99"></ellipse>
  <ellipse
    cx="144.766"
    cy="123.33"
    rx="2.61313"
    ry="2.53765"
    fill="#d1462e99"></ellipse>
  <ellipse
    cx="144.766"
    cy="157.842"
    rx="2.61313"
    ry="2.53765"
    fill="#d1462e99"></ellipse>
  <ellipse
    cx="126.997"
    cy="19.7938"
    rx="2.61313"
    ry="2.53765"
    fill="#d1462e99"></ellipse>
  <ellipse
    cx="126.997"
    cy="88.8179"
    rx="2.61313"
    ry="2.53765"
    fill="#d1462e99"></ellipse>
  <ellipse
    cx="126.997"
    cy="54.3057"
    rx="2.61313"
    ry="2.53765"
    fill="#d1462e99"></ellipse>
  <ellipse
    cx="126.997"
    cy="123.33"
    rx="2.61313"
    ry="2.53765"
    fill="#d1462e99"></ellipse>
  <ellipse
    cx="126.997"
    cy="157.842"
    rx="2.61313"
    ry="2.53765"
    fill="#d1462e99"></ellipse>
  <ellipse
    cx="109.228"
    cy="19.7938"
    rx="2.61313"
    ry="2.53765"
    fill="#d1462e99"></ellipse>
  <ellipse
    cx="109.228"
    cy="88.8179"
    rx="2.61313"
    ry="2.53765"
    fill="#d1462e99"></ellipse>
  <ellipse
    cx="109.228"
    cy="54.3057"
    rx="2.61313"
    ry="2.53765"
    fill="#d1462e99"></ellipse>
  <ellipse
    cx="109.228"
    cy="123.33"
    rx="2.61313"
    ry="2.53765"
    fill="#d1462e99"></ellipse>
  <ellipse
    cx="109.228"
    cy="157.842"
    rx="2.61313"
    ry="2.53765"
    fill="#d1462e99"></ellipse>
  <ellipse
    cx="91.4588"
    cy="19.7938"
    rx="2.61313"
    ry="2.53765"
    fill="#d1462e99"></ellipse>
  <ellipse
    cx="91.4588"
    cy="88.8179"
    rx="2.61313"
    ry="2.53765"
    fill="#d1462e99"></ellipse>
  <ellipse
    cx="91.4588"
    cy="54.3057"
    rx="2.61313"
    ry="2.53765"
    fill="#d1462e99"></ellipse>
  <ellipse
    cx="91.4588"
    cy="123.33"
    rx="2.61313"
    ry="2.53765"
    fill="#d1462e99"></ellipse>
  <ellipse
    cx="91.4588"
    cy="157.842"
    rx="2.61313"
    ry="2.53765"
    fill="#d1462e99"></ellipse>
  <ellipse
    cx="73.6893"
    cy="19.7938"
    rx="2.61313"
    ry="2.53765"
    fill="#d1462e99"></ellipse>
  <ellipse
    cx="73.6893"
    cy="88.8179"
    rx="2.61313"
    ry="2.53765"
    fill="#d1462e99"></ellipse>
  <ellipse
    cx="73.6893"
    cy="54.3057"
    rx="2.61313"
    ry="2.53765"
    fill="#d1462e99"></ellipse>
  <ellipse
    cx="73.6893"
    cy="123.33"
    rx="2.61313"
    ry="2.53765"
    fill="#d1462e99"></ellipse>
  <ellipse
    cx="73.6893"
    cy="157.842"
    rx="2.61313"
    ry="2.53765"
    fill="#d1462e99"></ellipse>
  <ellipse
    cx="55.9198"
    cy="19.7938"
    rx="2.61313"
    ry="2.53765"
    fill="#d1462e99"></ellipse>
  <ellipse
    cx="55.9198"
    cy="88.8179"
    rx="2.61313"
    ry="2.53765"
    fill="#d1462e99"></ellipse>
  <ellipse
    cx="55.9198"
    cy="54.3057"
    rx="2.61313"
    ry="2.53765"
    fill="#d1462e99"></ellipse>
  <ellipse
    cx="55.9198"
    cy="123.33"
    rx="2.61313"
    ry="2.53765"
    fill="#d1462e99"></ellipse>
  <ellipse
    cx="55.9198"
    cy="157.842"
    rx="2.61313"
    ry="2.53765"
    fill="#d1462e99"></ellipse>
  <ellipse
    cx="38.1502"
    cy="19.7938"
    rx="2.61313"
    ry="2.53765"
    fill="#d1462e99"></ellipse>
  <ellipse
    cx="38.1502"
    cy="88.8179"
    rx="2.61313"
    ry="2.53765"
    fill="#d1462e99"></ellipse>
  <ellipse
    cx="38.1502"
    cy="54.3057"
    rx="2.61313"
    ry="2.53765"
    fill="#d1462e99"></ellipse>
  <ellipse
    cx="38.1502"
    cy="123.33"
    rx="2.61313"
    ry="2.53765"
    fill="#d1462e99"></ellipse>
  <ellipse
    cx="38.1502"
    cy="157.842"
    rx="2.61313"
    ry="2.53765"
    fill="#d1462e99"></ellipse>
  <ellipse
    cx="20.3817"
    cy="19.7938"
    rx="2.61313"
    ry="2.53765"
    fill="#d1462e99"></ellipse>
  <ellipse
    cx="2.61216"
    cy="19.7938"
    rx="2.61313"
    ry="2.53765"
    fill="#d1462e99"></ellipse>
  <ellipse
    cx="2.61216"
    cy="37.0499"
    rx="2.61313"
    ry="2.53765"
    fill="#d1462e99"></ellipse>
  <ellipse
    cx="2.61216"
    cy="54.3057"
    rx="2.61313"
    ry="2.53765"
    fill="#d1462e99"></ellipse>
  <ellipse
    cx="20.3817"
    cy="37.0499"
    rx="2.61313"
    ry="2.53765"
    fill="#d1462e99"></ellipse>
  <ellipse
    cx="20.3817"
    cy="54.3057"
    rx="2.61313"
    ry="2.53765"
    fill="#d1462e99"></ellipse>
  <ellipse
    cx="20.3817"
    cy="71.5618"
    rx="2.61313"
    ry="2.53765"
    fill="#d1462e99"></ellipse>
  <ellipse
    cx="2.61216"
    cy="71.5618"
    rx="2.61313"
    ry="2.53765"
    fill="#d1462e99"></ellipse>
  <ellipse
    cx="2.61216"
    cy="88.8179"
    rx="2.61313"
    ry="2.53765"
    fill="#d1462e99"></ellipse>
  <ellipse
    cx="20.3817"
    cy="88.8179"
    rx="2.61313"
    ry="2.53765"
    fill="#d1462e99"></ellipse>
  <ellipse
    cx="20.3817"
    cy="106.074"
    rx="2.61313"
    ry="2.53765"
    fill="#d1462e99"></ellipse>
  <ellipse
    cx="2.61216"
    cy="106.074"
    rx="2.61313"
    ry="2.53765"
    fill="#d1462e99"></ellipse>
  <ellipse
    cx="2.61216"
    cy="123.33"
    rx="2.61313"
    ry="2.53765"
    fill="#d1462e99"></ellipse>
  <ellipse
    cx="2.61216"
    cy="140.586"
    rx="2.61313"
    ry="2.53765"
    fill="#d1462e99"></ellipse>
  <ellipse
    cx="2.61216"
    cy="157.842"
    rx="2.61313"
    ry="2.53765"
    fill="#d1462e99"></ellipse>
  <ellipse
    cx="20.3817"
    cy="157.842"
    rx="2.61313"
    ry="2.53765"
    fill="#d1462e99"></ellipse>
  <ellipse
    cx="20.3817"
    cy="140.586"
    rx="2.61313"
    ry="2.53765"
    fill="#d1462e99"></ellipse>
  <ellipse
    cx="20.3817"
    cy="123.33"
    rx="2.61313"
    ry="2.53765"
    fill="#d1462e99"></ellipse>
</svg>
